<svg xmlns="http://www.w3.org/2000/svg" viewBox="0 0 512 512">
<rect width="512" height="512" rx="112" fill="#14110E"/>
<rect x="28" y="28" width="456" height="456" rx="90" fill="none" stroke="#1E1915" stroke-width="3"/>
<circle cx="256" cy="256" r="87.0" fill="none" stroke="#3A9E79" stroke-width="7.2"/>
<g stroke="#5CC79B" stroke-width="7" stroke-linecap="round" fill="#5CC79B"><line x1="256.0" y1="203.8" x2="301.2" y2="229.9"/><line x1="301.2" y1="229.9" x2="301.2" y2="282.1"/><line x1="301.2" y1="282.1" x2="256.0" y2="308.2"/><line x1="256.0" y1="308.2" x2="210.8" y2="282.1"/><line x1="210.8" y1="282.1" x2="210.8" y2="229.9"/><line x1="210.8" y1="229.9" x2="256.0" y2="203.8"/><line x1="256.0" y1="203.8" x2="311.8" y2="194.0"/><line x1="301.2" y1="229.9" x2="337.6" y2="273.4"/><line x1="301.2" y1="282.1" x2="281.8" y2="335.4"/><line x1="256.0" y1="308.2" x2="200.2" y2="318.0"/><line x1="210.8" y1="282.1" x2="174.4" y2="238.6"/><line x1="210.8" y1="229.9" x2="230.2" y2="176.6"/><circle cx="256.0" cy="203.8" r="4.5"/><circle cx="301.2" cy="229.9" r="4.5"/><circle cx="301.2" cy="282.1" r="4.5"/><circle cx="256.0" cy="308.2" r="4.5"/><circle cx="210.8" cy="282.1" r="4.5"/><circle cx="210.8" cy="229.9" r="4.5"/></g>
<circle cx="256" cy="158.9" r="10" fill="#E6A94E"/>
</svg>